# xmcd
#
# Track frame offsets:
#	150
#	18012
#	32859
#	54314
#	65961
#	80629
#	90692
#	106623
#	117707
#	129310
#	146262
#	156757
#	170292
#	185285
#	198370
#	213075
#	228560
#
# Disc length: 3181 seconds
#
# Revision: 1
# Processed by: cddbd v1.5.2PL0 Copyright (c) Steve Scherf et al.
# Submitted via: audiograbber 1.83.01
#
DISCID=df0c6b11
DTITLE=Нина Пантелеева - Золотая коллекция ретро CD2
DYEAR=2005
DGENRE=Retro
TTITLE0=Утраченная любовь
TTITLE1=Лыжня
TTITLE2=Сентябрьская мелодия
TTITLE3=Люблю, когда звенит гитара
TTITLE4=Слова
TTITLE5=Дорожная
TTITLE6=Огонёк
TTITLE7=Позёмка
TTITLE8=Песня о счастливой любви
TTITLE9=Памяти Эдит Пиаф
TTITLE10=Сапожки Русские
TTITLE11=Паутиночка
TTITLE12=Листья кружатся
TTITLE13=Колокола
TTITLE14=Птицы летят на юг
TTITLE15=Маленький принц
TTITLE16=Встречайте артиста
EXTD=
EXTT0=
EXTT1=
EXTT2=
EXTT3=
EXTT4=
EXTT5=
EXTT6=
EXTT7=
EXTT8=
EXTT9=
EXTT10=
EXTT11=
EXTT12=
EXTT13=
EXTT14=
EXTT15=
EXTT16=
PLAYORDER=
